<svg version="1.1" id="Layer_1" xmlns="http://www.w3.org/2000/svg" xmlns:xlink="http://www.w3.org/1999/xlink" x="0px" y="0px"
	 width="100%" viewBox="0 0 500 500" enable-background="new 0 0 500 500" xml:space="preserve">
<path fill="#004AAD" opacity="1.000000" stroke="none" 
	d="
M228.000000,501.000000 
	C152.000015,501.000000 76.500038,501.000000 1.000041,501.000000 
	C1.000027,334.333405 1.000027,167.666779 1.000013,1.000130 
	C167.666565,1.000087 334.333130,1.000087 500.999756,1.000043 
	C500.999847,167.666534 500.999847,334.333069 500.999939,500.999817 
	C410.166656,501.000000 319.333344,501.000000 228.000000,501.000000 
M331.500000,318.996796 
	C371.651794,318.996674 411.803650,319.030396 451.955383,318.981750 
	C471.198730,318.958435 483.995941,306.192230 484.015961,287.123199 
	C484.041290,262.965454 484.033905,238.807632 484.001434,214.649902 
	C483.998322,212.328949 483.935272,209.969818 483.531189,207.693909 
	C481.117157,194.095764 468.344940,182.823242 451.285095,182.857040 
	C317.834717,183.121292 184.383575,183.002670 50.932671,183.009918 
	C48.934673,183.010040 46.928734,183.012741 44.939957,183.177109 
	C30.171507,184.397537 18.017622,197.485626 17.992109,212.294556 
	C17.948191,237.785095 17.966652,263.275787 18.007431,288.766357 
	C18.010864,290.912201 18.137997,293.113251 18.617939,295.194031 
	C22.040184,310.031128 33.873051,318.984131 50.103172,318.987396 
	C143.568787,319.006226 237.034393,318.996704 331.500000,318.996796 
z"/>
<path fill="#C8D1D9" opacity="1.000000" stroke="none" 
	d="
M331.000000,318.996796 
	C237.034393,318.996704 143.568787,319.006226 50.103172,318.987396 
	C33.873051,318.984131 22.040184,310.031128 18.617939,295.194031 
	C18.137997,293.113251 18.010864,290.912201 18.007431,288.766357 
	C17.966652,263.275787 17.948191,237.785095 17.992109,212.294556 
	C18.017622,197.485626 30.171507,184.397537 44.939957,183.177109 
	C46.928734,183.012741 48.934673,183.010040 50.932671,183.009918 
	C184.383575,183.002670 317.834717,183.121292 451.285095,182.857040 
	C468.344940,182.823242 481.117157,194.095764 483.531189,207.693909 
	C483.935272,209.969818 483.998322,212.328949 484.001434,214.649902 
	C484.033905,238.807632 484.041290,262.965454 484.015961,287.123199 
	C483.995941,306.192230 471.198730,318.958435 451.955383,318.981750 
	C411.803650,319.030396 371.651794,318.996674 331.000000,318.996796 
M200.500000,304.916107 
	C282.832275,304.916107 365.164520,304.916138 447.496796,304.915924 
	C448.996765,304.915924 450.500275,304.978821 451.996185,304.899933 
	C462.413788,304.350739 469.809631,297.560822 469.883514,287.735321 
	C470.067749,263.236969 470.052795,238.735596 469.885712,214.237015 
	C469.825226,205.362793 464.802643,199.713333 456.014801,197.848358 
	C453.601837,197.336258 451.082642,197.114532 448.612122,197.113892 
	C316.946899,197.079803 185.281677,197.083694 53.616467,197.084381 
	C52.283199,197.084381 50.944832,197.019806 49.617462,197.110916 
	C38.204617,197.894318 32.060638,204.439056 32.053608,215.844498 
	C32.039631,238.510910 32.562412,261.193176 31.863605,283.838043 
	C31.417578,298.291595 40.902351,305.049408 53.001961,304.999542 
	C101.833923,304.798279 150.667206,304.915985 200.500000,304.916107 
z"/>
<path fill="#FDFDFE" opacity="1.000000" stroke="none" 
	d="
M200.000000,304.916016 
	C150.667206,304.915985 101.833923,304.798279 53.001961,304.999542 
	C40.902351,305.049408 31.417578,298.291595 31.863605,283.838043 
	C32.562412,261.193176 32.039631,238.510910 32.053608,215.844498 
	C32.060638,204.439056 38.204617,197.894318 49.617462,197.110916 
	C50.944832,197.019806 52.283199,197.084381 53.616467,197.084381 
	C185.281677,197.083694 316.946899,197.079803 448.612122,197.113892 
	C451.082642,197.114532 453.601837,197.336258 456.014801,197.848358 
	C464.802643,199.713333 469.825226,205.362793 469.885712,214.237015 
	C470.052795,238.735596 470.067749,263.236969 469.883514,287.735321 
	C469.809631,297.560822 462.413788,304.350739 451.996185,304.899933 
	C450.500275,304.978821 448.996765,304.915924 447.496796,304.915924 
	C365.164520,304.916138 282.832275,304.916107 200.000000,304.916016 
M176.124557,236.321228 
	C171.819199,234.776108 167.598648,232.287445 163.190033,231.891251 
	C155.148376,231.168564 146.995285,231.685852 139.920349,231.685852 
	C140.530060,234.048813 141.729355,236.678589 141.800415,239.338501 
	C142.044647,248.481873 141.820129,257.636688 141.932281,266.785217 
	C141.974030,270.189789 141.538086,273.012390 137.230408,273.659637 
	C145.592819,273.994019 153.666824,274.151398 161.732010,273.951965 
	C170.682281,273.730652 178.327423,270.478729 181.591858,261.623230 
	C184.893707,252.666183 184.083115,243.927246 176.124557,236.321228 
M319.576904,233.951599 
	C309.300354,240.922226 305.991791,251.621552 310.864471,262.126160 
	C315.456177,272.024994 327.625671,277.208099 339.242096,274.212402 
	C349.884521,271.467896 356.690155,263.047638 356.638397,252.688934 
	C356.587616,242.523865 349.878113,233.938644 339.590118,231.396194 
	C332.950409,229.755356 326.384674,230.248825 319.576904,233.951599 
M394.466370,248.684525 
	C398.160309,239.396469 394.305664,232.612854 384.423859,231.834579 
	C378.286072,231.351166 372.079193,231.744812 367.019257,231.744812 
	C367.620850,233.958069 368.755005,236.293076 368.808960,238.652786 
	C369.022003,247.972900 369.121185,257.309723 368.750488,266.619934 
	C368.647522,269.206146 366.778870,271.722076 365.949493,273.718567 
	C368.284760,273.718567 371.958588,273.718567 374.802094,273.718567 
	C371.659882,260.537933 374.280304,247.341003 373.192627,234.381760 
	C383.867950,232.689514 390.057495,234.789871 390.525604,240.823853 
	C390.775482,244.044510 389.533478,248.417023 387.308441,250.502533 
	C385.077301,252.593842 380.786224,252.487473 378.528900,253.058289 
	C381.627716,256.951324 385.085266,261.096039 388.320923,265.407257 
	C393.023376,271.672821 396.890503,274.144226 401.169281,273.101501 
	C396.114990,267.000824 391.108643,260.958038 386.534698,255.437164 
	C389.301727,253.191193 391.678345,251.262146 394.466370,248.684525 
M78.755989,231.971512 
	C69.997101,245.763626 61.238216,259.555756 52.141541,273.879761 
	C65.275208,273.879761 77.385910,273.879761 89.869118,273.879761 
	C89.963913,271.877625 90.051849,270.020264 90.159554,267.745514 
	C80.375992,275.291260 69.883766,270.314087 58.817310,272.312714 
	C69.451080,255.493774 79.308159,239.903275 89.475090,223.822693 
	C77.023773,223.822693 65.438034,223.822693 53.621071,223.822693 
	C53.621071,225.855301 53.621071,227.986359 53.621071,229.867035 
	C56.863716,226.320984 73.018188,224.742050 81.446899,227.485092 
	C80.654366,228.781891 79.892601,230.028351 78.755989,231.971512 
M257.684692,238.365707 
	C257.137421,243.602814 255.691254,248.935242 256.234283,254.056747 
	C257.290619,264.019196 263.170929,270.995026 272.850159,273.793121 
	C282.341217,276.536804 291.497437,275.558807 298.461853,267.607971 
	C300.240479,265.577454 300.736450,262.423431 301.821747,259.785614 
	C301.292664,259.570282 300.763611,259.354980 300.234558,259.139679 
	C299.992310,259.667114 299.749023,260.194092 299.508057,260.722137 
	C295.616394,269.250977 289.115875,273.348907 280.290497,272.836578 
	C271.833313,272.345642 264.604828,267.068756 262.608795,258.473877 
	C261.403595,253.284271 261.154297,247.520859 262.024292,242.271988 
	C264.035461,230.138199 273.764801,223.532349 285.723145,226.242172 
	C290.162659,227.248199 294.069061,230.607040 298.971771,233.307861 
	C297.982544,231.133087 297.606537,228.060699 295.980896,227.097656 
	C285.558624,220.923294 265.320221,221.049103 257.684692,238.365707 
M221.237640,254.167374 
	C217.735458,246.408112 214.233292,238.648834 210.509872,230.399414 
	C204.589188,243.107269 199.083023,255.182907 193.303879,267.126434 
	C192.049088,269.719696 189.815277,271.839172 188.227478,273.921082 
	C191.306473,273.921082 195.126053,273.921082 198.331024,273.921082 
	C197.879196,272.217896 196.796600,270.405090 197.087357,268.848907 
	C198.510361,261.232971 200.513474,259.739563 208.202637,259.739532 
	C210.368774,259.739532 212.539322,259.826416 214.699890,259.716705 
	C217.175232,259.591034 219.452988,259.667847 219.953857,262.784241 
	C220.535339,266.402222 225.506180,269.760468 220.507523,273.718506 
	C224.312576,273.718506 227.992645,273.718506 230.626328,273.718506 
	C227.668411,267.517151 224.641617,261.171387 221.237640,254.167374 
M435.927155,241.880829 
	C436.366943,250.990219 430.671478,254.080994 422.604797,255.011215 
	C428.157440,256.673187 433.270447,256.930725 437.471130,252.719574 
	C441.071198,249.110504 442.115479,244.572556 440.454529,239.818680 
	C438.504364,234.237030 433.718109,232.137772 428.291473,231.848099 
	C422.225647,231.524307 416.129211,231.773788 411.348480,231.773788 
	C411.950928,233.849380 413.287018,236.443634 413.362274,239.073959 
	C413.628998,248.395370 413.434326,257.729248 413.480591,267.058075 
	C413.497620,270.495911 413.063843,273.477020 408.700256,273.718567 
	C412.639404,273.718567 416.578552,273.718567 420.313049,273.718567 
	C419.492035,272.171204 418.142029,270.797607 418.121948,269.404877 
	C417.952148,257.619507 418.024994,245.830643 418.024994,234.089432 
	C429.851013,232.953629 433.077789,234.258545 435.927155,241.880829 
M108.392654,251.466476 
	C108.392654,245.735016 108.392654,240.003555 108.392654,233.708755 
	C114.460983,235.401367 121.539742,230.612442 126.629478,237.009735 
	C126.629478,235.119507 126.629478,233.029465 126.629478,231.206406 
	C117.473785,231.206406 108.605652,231.206406 100.713821,231.206406 
	C101.540886,233.758759 102.923927,236.143921 102.990677,238.565369 
	C103.251778,248.037674 103.020607,257.522369 103.136757,267.000458 
	C103.179131,270.458160 102.829971,273.331177 98.209709,273.637756 
	C106.934288,274.061646 115.321915,274.092712 123.709145,274.048218 
	C127.754112,274.026733 127.979752,273.673004 127.670677,270.103973 
	C121.299934,270.854340 114.898743,271.608307 108.128754,272.405701 
	C108.128754,265.678864 108.128754,259.976593 108.128754,253.478897 
	C113.554375,254.029022 118.621841,254.542831 123.471313,255.034546 
	C123.471313,253.875809 123.471313,251.465088 123.471313,248.892685 
	C119.394318,253.733109 114.066284,250.947083 108.392654,251.466476 
M449.512512,267.972992 
	C448.654175,269.310455 447.553436,270.573090 447.102173,272.036102 
	C446.984283,272.418213 448.886200,273.984894 449.862915,273.987213 
	C450.864838,273.989594 452.818298,272.444153 452.708221,272.093628 
	C452.246124,270.622925 451.166656,269.346191 449.512512,267.972992 
z"/>
<path fill="#0C0C0C" opacity="1.000000" stroke="none" 
	d="
M176.397079,236.561264 
	C184.083115,243.927246 184.893707,252.666183 181.591858,261.623230 
	C178.327423,270.478729 170.682281,273.730652 161.732010,273.951965 
	C153.666824,274.151398 145.592819,273.994019 137.230408,273.659637 
	C141.538086,273.012390 141.974030,270.189789 141.932281,266.785217 
	C141.820129,257.636688 142.044647,248.481873 141.800415,239.338501 
	C141.729355,236.678589 140.530060,234.048813 139.920349,231.685852 
	C146.995285,231.685852 155.148376,231.168564 163.190033,231.891251 
	C167.598648,232.287445 171.819199,234.776108 176.397079,236.561264 
M146.620560,234.425522 
	C146.620560,246.827087 146.620560,259.228638 146.620560,271.831421 
	C152.268234,271.831421 157.438812,272.163147 162.551727,271.761261 
	C172.702576,270.963379 178.370819,263.429535 178.086060,251.696030 
	C177.827682,241.050507 171.807800,234.276718 161.915253,233.814514 
	C157.097107,233.589401 152.258621,233.799606 146.620560,234.425522 
z"/>
<path fill="#121212" opacity="1.000000" stroke="none" 
	d="
M319.900330,233.766968 
	C326.384674,230.248825 332.950409,229.755356 339.590118,231.396194 
	C349.878113,233.938644 356.587616,242.523865 356.638397,252.688934 
	C356.690155,263.047638 349.884521,271.467896 339.242096,274.212402 
	C327.625671,277.208099 315.456177,272.024994 310.864471,262.126160 
	C305.991791,251.621552 309.300354,240.922226 319.900330,233.766968 
M343.286896,236.001053 
	C330.677338,228.541534 316.824524,234.647980 314.323639,248.768311 
	C312.310913,260.132568 318.599365,270.285858 329.010590,272.481812 
	C338.671112,274.519379 348.477356,268.463409 350.606628,258.589447 
	C352.427338,250.146194 351.075836,242.316437 343.286896,236.001053 
z"/>
<path fill="#0B0B0B" opacity="1.000000" stroke="none" 
	d="
M394.260651,249.008820 
	C391.678345,251.262146 389.301727,253.191193 386.534698,255.437164 
	C391.108643,260.958038 396.114990,267.000824 401.169281,273.101501 
	C396.890503,274.144226 393.023376,271.672821 388.320923,265.407257 
	C385.085266,261.096039 381.627716,256.951324 378.528900,253.058289 
	C380.786224,252.487473 385.077301,252.593842 387.308441,250.502533 
	C389.533478,248.417023 390.775482,244.044510 390.525604,240.823853 
	C390.057495,234.789871 383.867950,232.689514 373.192627,234.381760 
	C374.280304,247.341003 371.659882,260.537933 374.802094,273.718567 
	C371.958588,273.718567 368.284760,273.718567 365.949493,273.718567 
	C366.778870,271.722076 368.647522,269.206146 368.750488,266.619934 
	C369.121185,257.309723 369.022003,247.972900 368.808960,238.652786 
	C368.755005,236.293076 367.620850,233.958069 367.019257,231.744812 
	C372.079193,231.744812 378.286072,231.351166 384.423859,231.834579 
	C394.305664,232.612854 398.160309,239.396469 394.260651,249.008820 
z"/>
<path fill="#121212" opacity="1.000000" stroke="none" 
	d="
M78.943413,231.623169 
	C79.892601,230.028351 80.654366,228.781891 81.446899,227.485092 
	C73.018188,224.742050 56.863716,226.320984 53.621071,229.867035 
	C53.621071,227.986359 53.621071,225.855301 53.621071,223.822693 
	C65.438034,223.822693 77.023773,223.822693 89.475090,223.822693 
	C79.308159,239.903275 69.451080,255.493774 58.817310,272.312714 
	C69.883766,270.314087 80.375992,275.291260 90.159554,267.745514 
	C90.051849,270.020264 89.963913,271.877625 89.869118,273.879761 
	C77.385910,273.879761 65.275208,273.879761 52.141541,273.879761 
	C61.238216,259.555756 69.997101,245.763626 78.943413,231.623169 
z"/>
<path fill="#131313" opacity="1.000000" stroke="none" 
	d="
M257.822266,237.999878 
	C265.320221,221.049103 285.558624,220.923294 295.980896,227.097656 
	C297.606537,228.060699 297.982544,231.133087 298.971771,233.307861 
	C294.069061,230.607040 290.162659,227.248199 285.723145,226.242172 
	C273.764801,223.532349 264.035461,230.138199 262.024292,242.271988 
	C261.154297,247.520859 261.403595,253.284271 262.608795,258.473877 
	C264.604828,267.068756 271.833313,272.345642 280.290497,272.836578 
	C289.115875,273.348907 295.616394,269.250977 299.508057,260.722137 
	C299.749023,260.194092 299.992310,259.667114 300.234558,259.139679 
	C300.763611,259.354980 301.292664,259.570282 301.821747,259.785614 
	C300.736450,262.423431 300.240479,265.577454 298.461853,267.607971 
	C291.497437,275.558807 282.341217,276.536804 272.850159,273.793121 
	C263.170929,270.995026 257.290619,264.019196 256.234283,254.056747 
	C255.691254,248.935242 257.137421,243.602814 257.822266,237.999878 
z"/>
<path fill="#131313" opacity="1.000000" stroke="none" 
	d="
M221.426239,254.496521 
	C224.641617,261.171387 227.668411,267.517151 230.626328,273.718506 
	C227.992645,273.718506 224.312576,273.718506 220.507523,273.718506 
	C225.506180,269.760468 220.535339,266.402222 219.953857,262.784241 
	C219.452988,259.667847 217.175232,259.591034 214.699890,259.716705 
	C212.539322,259.826416 210.368774,259.739532 208.202637,259.739532 
	C200.513474,259.739563 198.510361,261.232971 197.087357,268.848907 
	C196.796600,270.405090 197.879196,272.217896 198.331024,273.921082 
	C195.126053,273.921082 191.306473,273.921082 188.227478,273.921082 
	C189.815277,271.839172 192.049088,269.719696 193.303879,267.126434 
	C199.083023,255.182907 204.589188,243.107269 210.509872,230.399414 
	C214.233292,238.648834 217.735458,246.408112 221.426239,254.496521 
M212.086899,243.466537 
	C211.434906,242.021118 210.782928,240.575699 209.802704,238.402542 
	C208.181366,242.223129 206.904251,245.225662 205.632874,248.230637 
	C204.381104,251.189240 203.135147,254.150284 201.894073,257.092682 
	C207.480896,257.092682 212.366898,257.092682 217.661911,257.092682 
	C215.751038,252.436050 214.054047,248.300659 212.086899,243.466537 
z"/>
<path fill="#0E0E0E" opacity="1.000000" stroke="none" 
	d="
M435.886963,241.481796 
	C433.077789,234.258545 429.851013,232.953629 418.024994,234.089432 
	C418.024994,245.830643 417.952148,257.619507 418.121948,269.404877 
	C418.142029,270.797607 419.492035,272.171204 420.313049,273.718567 
	C416.578552,273.718567 412.639404,273.718567 408.700256,273.718567 
	C413.063843,273.477020 413.497620,270.495911 413.480591,267.058075 
	C413.434326,257.729248 413.628998,248.395370 413.362274,239.073959 
	C413.287018,236.443634 411.950928,233.849380 411.348480,231.773788 
	C416.129211,231.773788 422.225647,231.524307 428.291473,231.848099 
	C433.718109,232.137772 438.504364,234.237030 440.454529,239.818680 
	C442.115479,244.572556 441.071198,249.110504 437.471130,252.719574 
	C433.270447,256.930725 428.157440,256.673187 422.604797,255.011215 
	C430.671478,254.080994 436.366943,250.990219 435.886963,241.481796 
z"/>
<path fill="#212121" opacity="1.000000" stroke="none" 
	d="
M108.892014,251.563126 
	C114.066284,250.947083 119.394318,253.733109 123.471313,248.892685 
	C123.471313,251.465088 123.471313,253.875809 123.471313,255.034546 
	C118.621841,254.542831 113.554375,254.029022 108.128754,253.478897 
	C108.128754,259.976593 108.128754,265.678864 108.128754,272.405701 
	C114.898743,271.608307 121.299934,270.854340 127.670677,270.103973 
	C127.979752,273.673004 127.754112,274.026733 123.709145,274.048218 
	C115.321915,274.092712 106.934288,274.061646 98.209709,273.637756 
	C102.829971,273.331177 103.179131,270.458160 103.136757,267.000458 
	C103.020607,257.522369 103.251778,248.037674 102.990677,238.565369 
	C102.923927,236.143921 101.540886,233.758759 100.713821,231.206406 
	C108.605652,231.206406 117.473785,231.206406 126.629478,231.206406 
	C126.629478,233.029465 126.629478,235.119507 126.629478,237.009735 
	C121.539742,230.612442 114.460983,235.401367 108.392654,233.708755 
	C108.392654,240.003555 108.392654,245.735016 108.892014,251.563126 
z"/>
<path fill="#121212" opacity="1.000000" stroke="none" 
	d="
M449.912903,267.985718 
	C451.166656,269.346191 452.246124,270.622925 452.708221,272.093628 
	C452.818298,272.444153 450.864838,273.989594 449.862915,273.987213 
	C448.886200,273.984894 446.984283,272.418213 447.102173,272.036102 
	C447.553436,270.573090 448.654175,269.310455 449.912903,267.985718 
z"/>
<path fill="#F9F9F9" opacity="1.000000" stroke="none" 
	d="
M147.024963,234.119141 
	C152.258621,233.799606 157.097107,233.589401 161.915253,233.814514 
	C171.807800,234.276718 177.827682,241.050507 178.086060,251.696030 
	C178.370819,263.429535 172.702576,270.963379 162.551727,271.761261 
	C157.438812,272.163147 152.268234,271.831421 146.620560,271.831421 
	C146.620560,259.228638 146.620560,246.827087 147.024963,234.119141 
z"/>
<path fill="#FCFCFC" opacity="1.000000" stroke="none" 
	d="
M343.593781,236.213501 
	C351.075836,242.316437 352.427338,250.146194 350.606628,258.589447 
	C348.477356,268.463409 338.671112,274.519379 329.010590,272.481812 
	C318.599365,270.285858 312.310913,260.132568 314.323639,248.768311 
	C316.824524,234.647980 330.677338,228.541534 343.593781,236.213501 
z"/>
<path fill="#ECECEC" opacity="1.000000" stroke="none" 
	d="
M212.221985,243.815903 
	C214.054047,248.300659 215.751038,252.436050 217.661911,257.092682 
	C212.366898,257.092682 207.480896,257.092682 201.894073,257.092682 
	C203.135147,254.150284 204.381104,251.189240 205.632874,248.230637 
	C206.904251,245.225662 208.181366,242.223129 209.802704,238.402542 
	C210.782928,240.575699 211.434906,242.021118 212.221985,243.815903 
z"/>
</svg>